<svg width="100" height="17" viewBox="0 0 100 17" fill="none" xmlns="http://www.w3.org/2000/svg">
<path fill-rule="evenodd" clip-rule="evenodd" d="M11.0206 6.21885L8.99994 0L6.97931 6.21885H0.44043L5.7305 10.0623L3.70987 16.2812L8.99994 12.4377L14.29 16.2812L12.2694 10.0623L17.5594 6.21885H11.0206ZM49.9999 0L52.0206 6.21885H58.5594L53.2694 10.0623L55.29 16.2812L49.9999 12.4377L44.7099 16.2812L46.7305 10.0623L41.4404 6.21885H47.9793L49.9999 0ZM90.9999 0L93.0206 6.21885H99.5594L94.2694 10.0623L96.29 16.2812L90.9999 12.4377L85.7099 16.2812L87.7305 10.0623L82.4404 6.21885H88.9793L90.9999 0ZM28.9999 0L31.0206 6.21885H37.5594L32.2694 10.0623L34.29 16.2812L28.9999 12.4377L23.7099 16.2812L25.7305 10.0623L20.4404 6.21885H26.9793L28.9999 0ZM73.0206 6.21885L70.9999 0L68.9793 6.21885H62.4404L67.7305 10.0623L65.7099 16.2812L70.9999 12.4377L76.29 16.2812L74.2694 10.0623L79.5594 6.21885H73.0206Z" fill="#F7BA73"/>
</svg>
