<svg width="40" height="33" viewBox="0 0 40 33" fill="none" xmlns="http://www.w3.org/2000/svg">
<path d="M8.62876 24.5L5.37866 8.77274H38.7722L35.522 24.5H8.62876Z" stroke="white" stroke-width="2"/>
<path d="M15.3397 29.5909C15.3397 30.8746 14.2304 32 12.7548 32C11.2792 32 10.1699 30.8746 10.1699 29.5909C10.1699 28.3072 11.2792 27.1818 12.7548 27.1818C14.2304 27.1818 15.3397 28.3072 15.3397 29.5909Z" stroke="white" stroke-width="2"/>
<path d="M33.9813 29.5909C33.9813 30.8746 32.872 32 31.3964 32C29.9208 32 28.8115 30.8746 28.8115 29.5909C28.8115 28.3072 29.9208 27.1818 31.3964 27.1818C32.872 27.1818 33.9813 28.3072 33.9813 29.5909Z" stroke="white" stroke-width="2"/>
<mask id="path-4-outside-1_5_45" maskUnits="userSpaceOnUse" x="0" y="0" width="11" height="10" fill="black">
<rect fill="white" width="11" height="10"/>
<path d="M2 4.36364V3L7.73585 3.68182L8.09434 7.77273H6.30189V5.04545L2 4.36364Z"/>
</mask>
<path d="M2 4.36364H0V6.07161L1.68692 6.33898L2 4.36364ZM2 3L2.23608 1.01398L0 0.74818V3H2ZM8.09434 7.77273V9.77273H10.2773L10.0867 7.59813L8.09434 7.77273ZM6.30189 7.77273H4.30189V9.77273H6.30189V7.77273ZM7.73585 3.68182L9.72821 3.50723L9.58629 1.8877L7.97193 1.6958L7.73585 3.68182ZM6.30189 5.04545H8.30189V3.33748L6.61496 3.07011L6.30189 5.04545ZM4 4.36364V3H0V4.36364H4ZM8.09434 5.77273H6.30189V9.77273H8.09434V5.77273ZM1.76392 4.98602L7.49977 5.66784L7.97193 1.6958L2.23608 1.01398L1.76392 4.98602ZM5.74348 3.85641L6.10197 7.94732L10.0867 7.59813L9.72821 3.50723L5.74348 3.85641ZM8.30189 7.77273V5.04545H4.30189V7.77273H8.30189ZM6.61496 3.07011L2.31308 2.38829L1.68692 6.33898L5.98881 7.0208L6.61496 3.07011Z" fill="white" mask="url(#path-4-outside-1_5_45)"/>
</svg>
